<?xml version="1.0" standalone="no"?><!DOCTYPE svg PUBLIC "-//W3C//DTD SVG 1.1//EN" "http://www.w3.org/Graphics/SVG/1.1/DTD/svg11.dtd"><svg t="1645427088858" class="icon" viewBox="0 0 1024 1024" version="1.1" xmlns="http://www.w3.org/2000/svg" p-id="2028" xmlns:xlink="http://www.w3.org/1999/xlink" width="200" height="200"><defs><style type="text/css"></style></defs><path d="M995.8835 547.882c37.49-37.49 37.49-98.274 0-135.764l-320-320c-37.49-37.49-98.272-37.492-135.766 0l-512 512c-37.49 37.49-37.49 98.274 0 135.764l192 192A96.008 96.008 0 0 0 288.0015 960h712c13.254 0 24-10.746 24-24v-80c0-13.254-10.746-24-24-24H711.7675l284.116-284.118z m-605.254-125.254l274.746 274.746L530.7475 832H301.2575l-160-160 249.372-249.372z" fill="" p-id="2029"></path></svg>