<?xml version="1.0" standalone="no"?><!DOCTYPE svg PUBLIC "-//W3C//DTD SVG 1.1//EN" "http://www.w3.org/Graphics/SVG/1.1/DTD/svg11.dtd"><svg t="1641318125520" class="icon" viewBox="0 0 1024 1024" version="1.1" xmlns="http://www.w3.org/2000/svg" p-id="2218" xmlns:xlink="http://www.w3.org/1999/xlink" width="200" height="200"><defs><style type="text/css"></style></defs><path d="M96 0a32 32 0 0 1 32 32v960a32 32 0 0 1-64 0V32A32 32 0 0 1 96 0z m128 192h448a32 32 0 0 1 32 32v192a32 32 0 0 1-32 32h-448a32 32 0 0 1-32-32v-192a32 32 0 0 1 32-32z m0 384h704a32 32 0 0 1 32 32v192a32 32 0 0 1-32 32h-704a32 32 0 0 1-32-32v-192a32 32 0 0 1 32-32z" fill="#666666" p-id="2219"></path></svg>