<?xml version="1.0" standalone="no"?><!DOCTYPE svg PUBLIC "-//W3C//DTD SVG 1.1//EN" "http://www.w3.org/Graphics/SVG/1.1/DTD/svg11.dtd"><svg t="1636461223462" class="icon" viewBox="0 0 1024 1024" version="1.1" xmlns="http://www.w3.org/2000/svg" p-id="15021" xmlns:xlink="http://www.w3.org/1999/xlink" width="200" height="200"><defs><style type="text/css"></style></defs><path d="M661.333333 938.666667a21.333333 21.333333 0 0 1-19.886666-13.606667L547.186667 682.666667H178.146667l-94.266667 242.4a21.333333 21.333333 0 1 1-39.76-15.466667l298.666667-768a21.333333 21.333333 0 0 1 39.76 0l298.666666 768A21.333333 21.333333 0 0 1 661.333333 938.666667zM194.74 640h335.853333L362.666667 208.193333zM960 256h-256a21.333333 21.333333 0 0 1 0-42.666667h256a21.333333 21.333333 0 0 1 0 42.666667z" fill="#5C5C66" p-id="15022"></path></svg>