<?xml version="1.0" standalone="no"?><!DOCTYPE svg PUBLIC "-//W3C//DTD SVG 1.1//EN" "http://www.w3.org/Graphics/SVG/1.1/DTD/svg11.dtd"><svg t="1638357057498" class="icon" viewBox="0 0 1024 1024" version="1.1" xmlns="http://www.w3.org/2000/svg" p-id="1369" xmlns:xlink="http://www.w3.org/1999/xlink" width="200" height="200"><defs><style type="text/css"></style></defs><path d="M0 551.801v-79.887c1.016-4.059 2.521-8.064 2.979-12.185 10.337-93.285 45.97-176.032 105.043-248.523C242.023 46.767 467.516-20.861 669.606 45.625c172.642 56.798 288.053 171.906 338.23 348.401 8.185 28.798 10.915 59.149 16.163 88.782v61.73c-1.015 4.039-2.582 8.028-2.954 12.12-8.159 89.532-39.656 170.192-93.663 241.738-215.861 285.946-645.817 262.396-832.739-3.646-30.292-43.113-56.15-87.426-71.498-137.149C12.537 623.227 7.518 587.127 0 551.801z m486.8-254.3c-58.128 0-114.249-0.261-170.355 0.534-4.159 0.059-10.877 7.138-11.897 11.917-8.796 41.273-17.257 82.647-24.298 124.25-3.046 18-2.523 36.603-3.606 54.662H486.8V297.501zM277.573 536.658c-0.36 3.252-1.137 5.628-0.792 7.827 8.876 56.524 17.918 113.024 26.796 169.549 1.635 10.415 7.422 13.16 17.592 13.064 50.743-0.468 101.493-0.167 152.239-0.27 4.55-0.007 9.098-0.972 13.273-1.45V536.657l-209.108 0.001z m458.168-47.545c-2.791-66.528-11.904-129.484-31.585-190.557H536.552v190.557h199.189z m-0.304 48.156H536.149v189.582c54.384 0 107.519 0.191 160.646-0.423 3.695-0.046 9.519-5.479 10.643-9.45 16.516-58.298 26.442-117.666 27.999-179.709z m22.528-239.736c7.9 61.66 15.936 121.305 22.857 181.078 1.369 11.805 7.71 11.583 15.873 11.576 54.982-0.051 109.964-0.009 164.943-0.158 3.95-0.011 7.894-1.305 13.007-2.209-3.198-66.16-21.943-126.605-53.093-183.433-1.829-3.335-7.383-6.534-11.233-6.566-51.893-0.43-103.791-0.288-152.354-0.288z m27.872 239.239l-29.185 190.12c40.724 0 83.713-2.305 126.309 0.795 29.224 2.127 43.024-8.682 53.535-34.511 20.376-50.078 35.993-100.787 37.858-156.404H785.837z m-530.259-239.26c-46.475 0-94.693-0.27-142.896 0.454-4.404 0.066-10.323 5.598-12.814 10.1-22.404 40.479-37.906 83.53-45.402 129.259-2.776 16.939-4.441 34.06-6.723 51.973h178.501c9.809-64.134 19.455-127.189 29.334-191.786z m-0.184 429.3L226.41 537.386H48.302c3.92 65.358 21.745 124.926 51.974 180.854 1.977 3.659 6.833 8.167 10.396 8.206 48.775 0.542 97.558 0.366 144.722 0.366z m230.858 231.854V772.853H323.507c23.759 62.798 55.645 118.596 95.894 169.617 3.058 3.876 8.051 7.737 12.695 8.585 17.159 3.122 34.55 4.972 54.156 7.611zM323.461 252.483h163.112V67.506c-16.321 1.748-31.259 2.619-45.888 5.223-7.172 1.278-16.083 3.915-20.271 9.108-41.103 50.981-72.942 107.363-96.953 170.646z m365.596 518.601c-47.592 0-91.642 0.61-135.659-0.326-15.646-0.333-19.1 5.454-18.865 19.937 0.783 48.929 0.255 97.872 0.351 146.815 0.011 6.333 0.759 12.674 1.16 18.922 30.198 2.319 52.368-3.869 69.865-29.869 32.432-48.188 61.528-97.656 83.148-155.479zM536.024 252.763h151.891c-2.404-6.973-3.525-12.917-6.319-17.922-25.887-46.296-52.524-92.172-77.968-138.706-15.28-27.954-40.096-28.129-67.604-27.176v183.804z m353.27 518.449c-50.018 0-95.751-0.397-141.457 0.581-4.9 0.106-11.447 7.355-14.142 12.809-17.596 35.646-33.901 71.93-51.582 107.532-7.021 14.131-16.482 27.05-27.117 44.213 96.171-31.752 171.834-84.359 234.298-165.135z m-3.546-518.133C852.1 190.671 715.691 95.483 661.354 93.18c26.185 51.798 53.071 104.989 80.83 159.899h143.564zM351.191 928.783c-14.003-24.802-28.315-47.954-40.427-72.21-12.385-24.801-21.956-51.007-34.335-75.815-2.514-5.035-11.995-9.106-18.383-9.28-33.216-0.918-66.47-0.429-99.711-0.429h-22.227c40.387 64.383 149.523 143.822 215.083 157.734z m-3.568-833c-83.782 30.741-154.85 81.697-213.016 157.755 46.613 0 89.229 0.188 131.835-0.354 3.44-0.044 8.287-4.404 10-7.956 24.04-49.821 47.65-99.85 71.181-149.445z" p-id="1370" fill="#707070"></path></svg>