<?xml version="1.0" encoding="UTF-8" standalone="no"?><!DOCTYPE svg PUBLIC "-//W3C//DTD SVG 1.1//EN" "http://www.w3.org/Graphics/SVG/1.1/DTD/svg11.dtd"><svg width="100%" height="100%" viewBox="0 0 443 437" version="1.1" xmlns="http://www.w3.org/2000/svg" xmlns:xlink="http://www.w3.org/1999/xlink" xml:space="preserve" xmlns:serif="http://www.serif.com/" style="fill-rule:evenodd;clip-rule:evenodd;stroke-linejoin:round;stroke-miterlimit:2;"><path d="M235.341,13.094c-2.304,-7.454 -9.195,-12.538 -16.998,-12.538c-7.802,0 -14.694,5.084 -16.997,12.538l-27.876,90.209c-0,0 -46.932,-24.354 -46.932,-24.354c-5.903,-3.063 -13.022,-2.578 -18.455,1.257c-5.433,3.836 -8.273,10.381 -7.363,16.969l7.762,56.168c0,-0 -90.139,-0 -90.139,-0c-7.628,-0 -14.408,4.863 -16.852,12.09c-2.445,7.226 -0.01,15.206 6.052,19.838l73.891,56.447c0,0 -37.941,40.927 -37.941,40.927c-4.419,4.767 -5.887,11.566 -3.827,17.732c2.06,6.166 7.319,10.717 13.717,11.871l52.588,9.484c0,-0 -28.232,91.362 -28.232,91.362c-2.285,7.394 0.472,15.417 6.819,19.844c6.348,4.428 14.829,4.244 20.979,-0.454l72.349,-55.27c0,-0 24.545,49.089 24.545,49.089c3.014,6.027 9.174,9.834 15.912,9.834c6.739,0 12.899,-3.807 15.913,-9.834l24.544,-49.089c0,-0 72.35,55.27 72.35,55.27c6.15,4.698 14.631,4.882 20.978,0.454c6.347,-4.427 9.104,-12.45 6.82,-19.844l-26.831,-86.827c-0,0 91.657,2.563 91.657,2.563c8.307,0.233 15.668,-5.317 17.731,-13.367c2.063,-8.05 -1.722,-16.456 -9.117,-20.247l-91.448,-46.887c0,-0 87.749,-62.723 87.749,-62.723c6.502,-4.647 9.106,-13.06 6.368,-20.568c-2.738,-7.509 -10.147,-12.27 -18.115,-11.64l-102.134,8.068c0,-0 43.419,-86.568 43.419,-86.568c3.642,-7.262 1.902,-16.068 -4.228,-21.4c-6.13,-5.331 -15.093,-5.833 -21.78,-1.218l-69.869,48.216c-0,0 -27.009,-87.402 -27.009,-87.402Zm-16.998,65.51l17.167,55.553c1.672,5.411 5.821,9.703 11.173,11.557c5.352,1.855 11.267,1.05 15.929,-2.168l32.694,-22.561c0,-0 -26.444,52.724 -26.444,52.724c-2.878,5.738 -2.441,12.583 1.143,17.909c3.584,5.326 9.76,8.308 16.16,7.802l69.716,-5.507c-0,0 -59.388,42.451 -59.388,42.451c-5.049,3.609 -7.853,9.588 -7.397,15.778c0.455,6.189 4.103,11.694 9.625,14.526l47.593,24.401c-0,0 -38.031,-1.063 -38.031,-1.063c-5.735,-0.161 -11.195,2.455 -14.665,7.024c-3.47,4.569 -4.523,10.531 -2.829,16.012l17.73,57.378c0,0 -45.212,-34.539 -45.212,-34.539c-4.214,-3.219 -9.644,-4.391 -14.81,-3.195c-5.167,1.195 -9.53,4.633 -11.902,9.376l-18.252,36.504c0,-0 -18.251,-36.504 -18.251,-36.504c-2.372,-4.743 -6.736,-8.181 -11.902,-9.376c-5.166,-1.196 -10.597,-0.024 -14.811,3.195l-45.212,34.539c0,0 17.731,-57.378 17.731,-57.378c1.504,-4.866 0.85,-10.144 -1.796,-14.496c-2.647,-4.352 -7.031,-7.361 -12.044,-8.265l-40.375,-7.281c-0,0 29.15,-31.444 29.15,-31.444c3.408,-3.676 5.106,-8.619 4.679,-13.613c-0.428,-4.994 -2.943,-9.576 -6.926,-12.619l-47.648,-36.4c-0.001,-0 57.963,-0 57.963,-0c5.143,-0 10.034,-2.226 13.413,-6.104c3.379,-3.877 4.914,-9.028 4.21,-14.122l-5.85,-42.327c0,0 35.311,18.324 35.311,18.324c4.68,2.429 10.196,2.656 15.06,0.621c4.864,-2.034 8.575,-6.122 10.132,-11.159l17.166,-55.553Z"/></svg>