<?xml version="1.0" standalone="no"?><!DOCTYPE svg PUBLIC "-//W3C//DTD SVG 1.1//EN" "http://www.w3.org/Graphics/SVG/1.1/DTD/svg11.dtd"><svg t="1642434356500" class="icon" viewBox="0 0 1024 1024" version="1.1" xmlns="http://www.w3.org/2000/svg" p-id="2610" xmlns:xlink="http://www.w3.org/1999/xlink" width="200" height="200"><defs><style type="text/css"></style></defs><path d="M1006.526933 995.935495 1006.526933 1023.237997 343.204935 1023.237997 343.204935 996.380123 343.204935 962.277905 343.204935 62.047846 343.204935 1.206626 343.204935 1.087754 946.328842 1.087754 946.328842 0.761999 1007.289315 0.761999 1007.289315 995.935495 1006.526933 995.935495ZM946.328842 62.047846 404.165408 62.047846 404.165408 962.277905 946.328842 962.277905 946.328842 62.047846ZM156.514654 918.060121 226.618379 918.060121 122.778197 1023.085596 16.710685 918.060121 95.554944 918.060121 95.554944 105.708226 20.705857 105.708226 124.541086 0.765428 230.602883 105.708226 156.514654 105.708226 156.514654 918.060121Z" p-id="2611"></path></svg>